<svg id="diagram-1" width="100%" xmlns="http://www.w3.org/2000/svg" class="flowchart" style="max-width: 799px;" viewBox="0 0 799 1451" role="graphics-document document" aria-roledescription="flowchart-v2"><style>#diagram-1{font-family:Helvetica,"Liberation Sans",Arial,"Hiragino Kaku Gothic ProN","Noto Sans CJK JP","Microsoft YaHei","Apple Color Emoji","Segoe UI Emoji","Noto Color Emoji",sans-serif;font-size:16px;fill:#000000;}@keyframes edge-animation-frame{from{stroke-dashoffset:0;}}@keyframes dash{to{stroke-dashoffset:0;}}#diagram-1 .edge-animation-slow{stroke-dasharray:9,5!important;stroke-dashoffset:900;animation:dash 50s linear infinite;stroke-linecap:round;}#diagram-1 .edge-animation-fast{stroke-dasharray:9,5!important;stroke-dashoffset:900;animation:dash 20s linear infinite;stroke-linecap:round;}#diagram-1 .error-icon{fill:#552222;}#diagram-1 .error-text{fill:#552222;stroke:#552222;}#diagram-1 .edge-thickness-normal{stroke-width:1px;}#diagram-1 .edge-thickness-thick{stroke-width:3.5px;}#diagram-1 .edge-pattern-solid{stroke-dasharray:0;}#diagram-1 .edge-thickness-invisible{stroke-width:0;fill:none;}#diagram-1 .edge-pattern-dashed{stroke-dasharray:3;}#diagram-1 .edge-pattern-dotted{stroke-dasharray:2;}#diagram-1 .marker{fill:#666;stroke:#666;}#diagram-1 .marker.cross{stroke:#666;}#diagram-1 svg{font-family:Helvetica,"Liberation Sans",Arial,"Hiragino Kaku Gothic ProN","Noto Sans CJK JP","Microsoft YaHei","Apple Color Emoji","Segoe UI Emoji","Noto Color Emoji",sans-serif;font-size:16px;}#diagram-1 p{margin:0;}#diagram-1 .label{font-family:Helvetica,"Liberation Sans",Arial,"Hiragino Kaku Gothic ProN","Noto Sans CJK JP","Microsoft YaHei","Apple Color Emoji","Segoe UI Emoji","Noto Color Emoji",sans-serif;color:#000000;}#diagram-1 .cluster-label text{fill:#333;}#diagram-1 .cluster-label span{color:#333;}#diagram-1 .cluster-label span p{background-color:transparent;}#diagram-1 .label text,#diagram-1 span{fill:#000000;color:#000000;}#diagram-1 .node rect,#diagram-1 .node circle,#diagram-1 .node ellipse,#diagram-1 .node polygon,#diagram-1 .node path{fill:#eee;stroke:#999;stroke-width:1px;}#diagram-1 .rough-node .label text,#diagram-1 .node .label text,#diagram-1 .image-shape .label,#diagram-1 .icon-shape .label{text-anchor:middle;}#diagram-1 .node .katex path{fill:#000;stroke:#000;stroke-width:1px;}#diagram-1 .rough-node .label,#diagram-1 .node .label,#diagram-1 .image-shape .label,#diagram-1 .icon-shape .label{text-align:center;}#diagram-1 .node.clickable{cursor:pointer;}#diagram-1 .root .anchor path{fill:#666!important;stroke-width:0;stroke:#666;}#diagram-1 .arrowheadPath{fill:#333333;}#diagram-1 .edgePath .path{stroke:#666;stroke-width:2.0px;}#diagram-1 .flowchart-link{stroke:#666;fill:none;}#diagram-1 .edgeLabel{background-color:white;text-align:center;}#diagram-1 .edgeLabel p{background-color:white;}#diagram-1 .edgeLabel rect{opacity:0.5;background-color:white;fill:white;}#diagram-1 .labelBkg{background-color:rgba(255, 255, 255, 0.5);}#diagram-1 .cluster rect{fill:hsl(0, 0%, 98.9215686275%);stroke:#707070;stroke-width:1px;}#diagram-1 .cluster text{fill:#333;}#diagram-1 .cluster span{color:#333;}#diagram-1 div.mermaidTooltip{position:absolute;text-align:center;max-width:200px;padding:2px;font-family:Helvetica,"Liberation Sans",Arial,"Hiragino Kaku Gothic ProN","Noto Sans CJK JP","Microsoft YaHei","Apple Color Emoji","Segoe UI Emoji","Noto Color Emoji",sans-serif;font-size:12px;background:hsl(-160, 0%, 93.3333333333%);border:1px solid #707070;border-radius:2px;pointer-events:none;z-index:100;}#diagram-1 .flowchartTitleText{text-anchor:middle;font-size:18px;fill:#000000;}#diagram-1 rect.text{fill:none;stroke-width:0;}#diagram-1 .icon-shape,#diagram-1 .image-shape{background-color:white;text-align:center;}#diagram-1 .icon-shape p,#diagram-1 .image-shape p{background-color:white;padding:2px;}#diagram-1 .icon-shape rect,#diagram-1 .image-shape rect{opacity:0.5;background-color:white;fill:white;}#diagram-1 .label-icon{display:inline-block;height:1em;overflow:visible;vertical-align:-0.125em;}#diagram-1 .node .label-icon path{fill:currentColor;stroke:revert;stroke-width:revert;}#diagram-1 :root{--mermaid-font-family:Helvetica,"Liberation Sans",Arial,"Hiragino Kaku Gothic ProN","Noto Sans CJK JP","Microsoft YaHei","Apple Color Emoji","Segoe UI Emoji","Noto Color Emoji",sans-serif;}</style><g><marker id="diagram-1_flowchart-v2-pointEnd" class="marker flowchart-v2" viewBox="0 0 10 10" refX="5" refY="5" markerUnits="userSpaceOnUse" markerWidth="8" markerHeight="8" orient="auto"><path d="M 0 0 L 10 5 L 0 10 z" class="arrowMarkerPath" style="stroke-width: 1; stroke-dasharray: 1, 0;"></path></marker><marker id="diagram-1_flowchart-v2-pointStart" class="marker flowchart-v2" viewBox="0 0 10 10" refX="4.5" refY="5" markerUnits="userSpaceOnUse" markerWidth="8" markerHeight="8" orient="auto"><path d="M 0 5 L 10 10 L 10 0 z" class="arrowMarkerPath" style="stroke-width: 1; stroke-dasharray: 1, 0;"></path></marker><marker id="diagram-1_flowchart-v2-circleEnd" class="marker flowchart-v2" viewBox="0 0 10 10" refX="11" refY="5" markerUnits="userSpaceOnUse" markerWidth="11" markerHeight="11" orient="auto"><circle cx="5" cy="5" r="5" class="arrowMarkerPath" style="stroke-width: 1; stroke-dasharray: 1, 0;"></circle></marker><marker id="diagram-1_flowchart-v2-circleStart" class="marker flowchart-v2" viewBox="0 0 10 10" refX="-1" refY="5" markerUnits="userSpaceOnUse" markerWidth="11" markerHeight="11" orient="auto"><circle cx="5" cy="5" r="5" class="arrowMarkerPath" style="stroke-width: 1; stroke-dasharray: 1, 0;"></circle></marker><marker id="diagram-1_flowchart-v2-crossEnd" class="marker cross flowchart-v2" viewBox="0 0 11 11" refX="12" refY="5.2" markerUnits="userSpaceOnUse" markerWidth="11" markerHeight="11" orient="auto"><path d="M 1,1 l 9,9 M 10,1 l -9,9" class="arrowMarkerPath" style="stroke-width: 2; stroke-dasharray: 1, 0;"></path></marker><marker id="diagram-1_flowchart-v2-crossStart" class="marker cross flowchart-v2" viewBox="0 0 11 11" refX="-1" refY="5.2" markerUnits="userSpaceOnUse" markerWidth="11" markerHeight="11" orient="auto"><path d="M 1,1 l 9,9 M 10,1 l -9,9" class="arrowMarkerPath" style="stroke-width: 2; stroke-dasharray: 1, 0;"></path></marker><g class="root"><g class="clusters"></g><g class="edgePaths"><path d="M547,56L547,60.167C547,64.333,547,72.667,547,80.333C547,88,547,95,547,98.5L547,102" id="L_Discover_Stage_0" class="edge-thickness-normal edge-pattern-solid edge-thickness-normal edge-pattern-solid flowchart-link" style=";" data-edge="true" data-et="edge" data-id="L_Discover_Stage_0" data-points="W3sieCI6NTQ3LCJ5Ijo1Nn0seyJ4Ijo1NDcsInkiOjgxfSx7IngiOjU0NywieSI6MTA2fV0=" marker-end="url(#diagram-1_flowchart-v2-pointEnd)"></path><path d="M547,154L547,158.167C547,162.333,547,170.667,547,178.333C547,186,547,193,547,196.5L547,200" id="L_Stage_Verify_0" class="edge-thickness-normal edge-pattern-solid edge-thickness-normal edge-pattern-solid flowchart-link" style=";" data-edge="true" data-et="edge" data-id="L_Stage_Verify_0" data-points="W3sieCI6NTQ3LCJ5IjoxNTR9LHsieCI6NTQ3LCJ5IjoxNzl9LHsieCI6NTQ3LCJ5IjoyMDR9XQ==" marker-end="url(#diagram-1_flowchart-v2-pointEnd)"></path><path d="M516.265,252L510.929,256.167C505.594,260.333,494.922,268.667,489.586,276.333C484.25,284,484.25,291,484.25,294.5L484.25,298" id="L_Verify_Diff_0" class="edge-thickness-normal edge-pattern-solid edge-thickness-normal edge-pattern-solid flowchart-link" style=";" data-edge="true" data-et="edge" data-id="L_Verify_Diff_0" data-points="W3sieCI6NTE2LjI2NTMwNjEyMjQ0OSwieSI6MjUyfSx7IngiOjQ4NC4yNSwieSI6Mjc3fSx7IngiOjQ4NC4yNSwieSI6MzAyfV0=" marker-end="url(#diagram-1_flowchart-v2-pointEnd)"></path><path d="M484.25,350L484.25,354.167C484.25,358.333,484.25,366.667,484.25,374.333C484.25,382,484.25,389,484.25,392.5L484.25,396" id="L_Diff_Scan_0" class="edge-thickness-normal edge-pattern-solid edge-thickness-normal edge-pattern-solid flowchart-link" style=";" data-edge="true" data-et="edge" data-id="L_Diff_Scan_0" data-points="W3sieCI6NDg0LjI1LCJ5IjozNTB9LHsieCI6NDg0LjI1LCJ5IjozNzV9LHsieCI6NDg0LjI1LCJ5Ijo0MDB9XQ==" marker-end="url(#diagram-1_flowchart-v2-pointEnd)"></path><path d="M449.352,448L443.293,452.167C437.235,456.333,425.117,464.667,419.059,472.333C413,480,413,487,413,490.5L413,494" id="L_Scan_Smoke_0" class="edge-thickness-normal edge-pattern-solid edge-thickness-normal edge-pattern-solid flowchart-link" style=";" data-edge="true" data-et="edge" data-id="L_Scan_Smoke_0" data-points="W3sieCI6NDQ5LjM1MjA0MDgxNjMyNjUsInkiOjQ0OH0seyJ4Ijo0MTMsInkiOjQ3M30seyJ4Ijo0MTMsInkiOjQ5OH1d" marker-end="url(#diagram-1_flowchart-v2-pointEnd)"></path><path d="M389.1,546L383.125,552C377.15,558,365.2,570,359.225,581.333C353.25,592.667,353.25,603.333,353.25,608.667L353.25,614" id="L_Smoke_Canary_0" class="edge-thickness-normal edge-pattern-solid edge-thickness-normal edge-pattern-solid flowchart-link" style=";" data-edge="true" data-et="edge" data-id="L_Smoke_Canary_0" data-points="W3sieCI6Mzg5LjEsInkiOjU0Nn0seyJ4IjozNTMuMjUsInkiOjU4Mn0seyJ4IjozNTMuMjUsInkiOjYxOH1d" marker-end="url(#diagram-1_flowchart-v2-pointEnd)"></path><path d="M321.55,666L313.625,672C305.7,678,289.85,690,281.925,701.333C274,712.667,274,723.333,274,728.667L274,734" id="L_Canary_Approval_0" class="edge-thickness-normal edge-pattern-solid edge-thickness-normal edge-pattern-solid flowchart-link" style=";" data-edge="true" data-et="edge" data-id="L_Canary_Approval_0" data-points="W3sieCI6MzIxLjU1LCJ5Ijo2NjZ9LHsieCI6Mjc0LCJ5Ijo3MDJ9LHsieCI6Mjc0LCJ5Ijo3Mzh9XQ==" marker-end="url(#diagram-1_flowchart-v2-pointEnd)"></path><path d="M237.276,948.276L232.147,960.397C227.018,972.518,216.759,996.759,211.629,1018.879C206.5,1041,206.5,1061,206.5,1081C206.5,1101,206.5,1121,209.363,1136.411C212.226,1151.821,217.953,1162.643,220.816,1168.054L223.679,1173.464" id="L_Approval_Promote_0" class="edge-thickness-normal edge-pattern-solid edge-thickness-normal edge-pattern-solid flowchart-link" style=";" data-edge="true" data-et="edge" data-id="L_Approval_Promote_0" data-points="W3sieCI6MjM3LjI3NjQzMTcxODA2MTY3LCJ5Ijo5NDguMjc2NDMxNzE4MDYxNn0seyJ4IjoyMDYuNSwieSI6MTAyMX0seyJ4IjoyMDYuNSwieSI6MTA4MX0seyJ4IjoyMDYuNSwieSI6MTE0MX0seyJ4IjoyMjUuNTUsInkiOjExNzd9XQ==" marker-end="url(#diagram-1_flowchart-v2-pointEnd)"></path><path d="M310.724,948.276L315.853,960.397C320.982,972.518,331.241,996.759,336.371,1014.213C341.5,1031.667,341.5,1042.333,341.5,1047.667L341.5,1053" id="L_Approval_Human_0" class="edge-thickness-normal edge-pattern-solid edge-thickness-normal edge-pattern-solid flowchart-link" style=";" data-edge="true" data-et="edge" data-id="L_Approval_Human_0" data-points="W3sieCI6MzEwLjcyMzU2ODI4MTkzODMsInkiOjk0OC4yNzY0MzE3MTgwNjE2fSx7IngiOjM0MS41LCJ5IjoxMDIxfSx7IngiOjM0MS41LCJ5IjoxMDU3fV0=" marker-end="url(#diagram-1_flowchart-v2-pointEnd)"></path><path d="M327.2,1105L323.625,1111C320.05,1117,312.9,1129,303.073,1140.557C293.247,1152.114,280.743,1163.228,274.491,1168.785L268.24,1174.343" id="L_Human_Promote_0" class="edge-thickness-normal edge-pattern-solid edge-thickness-normal edge-pattern-solid flowchart-link" style=";" data-edge="true" data-et="edge" data-id="L_Human_Promote_0" data-points="W3sieCI6MzI3LjIsInkiOjExMDV9LHsieCI6MzA1Ljc1LCJ5IjoxMTQxfSx7IngiOjI2NS4yNSwieSI6MTE3N31d" marker-end="url(#diagram-1_flowchart-v2-pointEnd)"></path><path d="M357.6,1105L361.625,1111C365.65,1117,373.7,1129,397.785,1140.814C421.869,1152.629,461.989,1164.258,482.048,1170.072L502.108,1175.886" id="L_Human_Quarantine_0" class="edge-thickness-normal edge-pattern-solid edge-thickness-normal edge-pattern-solid flowchart-link" style=";" data-edge="true" data-et="edge" data-id="L_Human_Quarantine_0" data-points="W3sieCI6MzU3LjYsInkiOjExMDV9LHsieCI6MzgxLjc1LCJ5IjoxMTQxfSx7IngiOjUwNS45NSwieSI6MTE3N31d" marker-end="url(#diagram-1_flowchart-v2-pointEnd)"></path><path d="M660.878,252L680.648,256.167C700.418,260.333,739.959,268.667,759.73,281C779.5,293.333,779.5,309.667,779.5,326C779.5,342.333,779.5,358.667,779.5,375C779.5,391.333,779.5,407.667,779.5,424C779.5,440.333,779.5,456.667,779.5,473C779.5,489.333,779.5,505.667,779.5,523.833C779.5,542,779.5,562,779.5,582C779.5,602,779.5,622,779.5,642C779.5,662,779.5,682,779.5,718.583C779.5,755.167,779.5,808.333,779.5,861.5C779.5,914.667,779.5,967.833,779.5,1004.417C779.5,1041,779.5,1061,779.5,1081C779.5,1101,779.5,1121,761.061,1136.8C742.622,1152.6,705.744,1164.2,687.305,1170L668.866,1175.8" id="L_Verify_Quarantine_0" class="edge-thickness-normal edge-pattern-solid edge-thickness-normal edge-pattern-solid flowchart-link" style=";" data-edge="true" data-et="edge" data-id="L_Verify_Quarantine_0" data-points="W3sieCI6NjYwLjg3NzU1MTAyMDQwODIsInkiOjI1Mn0seyJ4Ijo3NzkuNSwieSI6Mjc3fSx7IngiOjc3OS41LCJ5IjozMjZ9LHsieCI6Nzc5LjUsInkiOjM3NX0seyJ4Ijo3NzkuNSwieSI6NDI0fSx7IngiOjc3OS41LCJ5Ijo0NzN9LHsieCI6Nzc5LjUsInkiOjUyMn0seyJ4Ijo3NzkuNSwieSI6NTgyfSx7IngiOjc3OS41LCJ5Ijo2NDJ9LHsieCI6Nzc5LjUsInkiOjcwMn0seyJ4Ijo3NzkuNSwieSI6ODYxLjV9LHsieCI6Nzc5LjUsInkiOjEwMjF9LHsieCI6Nzc5LjUsInkiOjEwODF9LHsieCI6Nzc5LjUsInkiOjExNDF9LHsieCI6NjY1LjA1LCJ5IjoxMTc3fV0=" marker-end="url(#diagram-1_flowchart-v2-pointEnd)"></path><path d="M574.75,447.494L591.125,451.745C607.5,455.996,640.25,464.498,656.625,476.916C673,489.333,673,505.667,673,523.833C673,542,673,562,673,582C673,602,673,622,673,642C673,662,673,682,673,718.583C673,755.167,673,808.333,673,861.5C673,914.667,673,967.833,673,1004.417C673,1041,673,1061,673,1081C673,1101,673,1121,665.118,1136.613C657.236,1152.227,641.472,1163.453,633.59,1169.066L625.708,1174.68" id="L_Scan_Quarantine_0" class="edge-thickness-normal edge-pattern-solid edge-thickness-normal edge-pattern-solid flowchart-link" style=";" data-edge="true" data-et="edge" data-id="L_Scan_Quarantine_0" data-points="W3sieCI6NTc0Ljc1LCJ5Ijo0NDcuNDk0MDM5NzM1MDk5MzZ9LHsieCI6NjczLCJ5Ijo0NzN9LHsieCI6NjczLCJ5Ijo1MjJ9LHsieCI6NjczLCJ5Ijo1ODJ9LHsieCI6NjczLCJ5Ijo2NDJ9LHsieCI6NjczLCJ5Ijo3MDJ9LHsieCI6NjczLCJ5Ijo4NjEuNX0seyJ4Ijo2NzMsInkiOjEwMjF9LHsieCI6NjczLCJ5IjoxMDgxfSx7IngiOjY3MywieSI6MTE0MX0seyJ4Ijo2MjIuNDUsInkiOjExNzd9XQ==" marker-end="url(#diagram-1_flowchart-v2-pointEnd)"></path><path d="M471,546L485.5,552C500,558,529,570,543.5,586C558,602,558,622,558,642C558,662,558,682,558,718.583C558,755.167,558,808.333,558,861.5C558,914.667,558,967.833,558,1004.417C558,1041,558,1061,558,1081C558,1101,558,1121,560.771,1136.407C563.542,1151.813,569.084,1162.627,571.855,1168.034L574.626,1173.44" id="L_Smoke_Quarantine_0" class="edge-thickness-normal edge-pattern-solid edge-thickness-normal edge-pattern-solid flowchart-link" style=";" data-edge="true" data-et="edge" data-id="L_Smoke_Quarantine_0" data-points="W3sieCI6NDcxLCJ5Ijo1NDZ9LHsieCI6NTU4LCJ5Ijo1ODJ9LHsieCI6NTU4LCJ5Ijo2NDJ9LHsieCI6NTU4LCJ5Ijo3MDJ9LHsieCI6NTU4LCJ5Ijo4NjEuNX0seyJ4Ijo1NTgsInkiOjEwMjF9LHsieCI6NTU4LCJ5IjoxMDgxfSx7IngiOjU1OCwieSI6MTE0MX0seyJ4Ijo1NzYuNDUsInkiOjExNzd9XQ==" marker-end="url(#diagram-1_flowchart-v2-pointEnd)"></path><path d="M404.55,666L417.375,672C430.2,678,455.85,690,468.675,722.583C481.5,755.167,481.5,808.333,481.5,861.5C481.5,914.667,481.5,967.833,481.5,1004.417C481.5,1041,481.5,1061,481.5,1081C481.5,1101,481.5,1121,491.643,1136.675C501.786,1152.349,522.073,1163.698,532.216,1169.373L542.359,1175.047" id="L_Canary_Quarantine_0" class="edge-thickness-normal edge-pattern-solid edge-thickness-normal edge-pattern-solid flowchart-link" style=";" data-edge="true" data-et="edge" data-id="L_Canary_Quarantine_0" data-points="W3sieCI6NDA0LjU1LCJ5Ijo2NjZ9LHsieCI6NDgxLjUsInkiOjcwMn0seyJ4Ijo0ODEuNSwieSI6ODYxLjV9LHsieCI6NDgxLjUsInkiOjEwMjF9LHsieCI6NDgxLjUsInkiOjEwODF9LHsieCI6NDgxLjUsInkiOjExNDF9LHsieCI6NTQ1Ljg1LCJ5IjoxMTc3fV0=" marker-end="url(#diagram-1_flowchart-v2-pointEnd)"></path><path d="M189.75,1225L177.625,1231C165.5,1237,141.25,1249,129.125,1260.333C117,1271.667,117,1282.333,117,1287.667L117,1293" id="L_Promote_Lock_0" class="edge-thickness-normal edge-pattern-solid edge-thickness-normal edge-pattern-solid flowchart-link" style=";" data-edge="true" data-et="edge" data-id="L_Promote_Lock_0" data-points="W3sieCI6MTg5Ljc1LCJ5IjoxMjI1fSx7IngiOjExNywieSI6MTI2MX0seyJ4IjoxMTcsInkiOjEyOTd9XQ==" marker-end="url(#diagram-1_flowchart-v2-pointEnd)"></path><path d="M117,1345L117,1349.167C117,1353.333,117,1361.667,126.692,1369.75C136.385,1377.834,155.769,1385.668,165.461,1389.584L175.154,1393.501" id="L_Lock_Receipt_0" class="edge-thickness-normal edge-pattern-solid edge-thickness-normal edge-pattern-solid flowchart-link" style=";" data-edge="true" data-et="edge" data-id="L_Lock_Receipt_0" data-points="W3sieCI6MTE3LCJ5IjoxMzQ1fSx7IngiOjExNywieSI6MTM3MH0seyJ4IjoxNzguODYyMjQ0ODk3OTU5MiwieSI6MTM5NX1d" marker-end="url(#diagram-1_flowchart-v2-pointEnd)"></path><path d="M286.75,1225L298.875,1231C311,1237,335.25,1249,347.375,1260.333C359.5,1271.667,359.5,1282.333,359.5,1287.667L359.5,1293" id="L_Promote_Rollback_0" class="edge-thickness-normal edge-pattern-solid edge-thickness-normal edge-pattern-solid flowchart-link" style=";" data-edge="true" data-et="edge" data-id="L_Promote_Rollback_0" data-points="W3sieCI6Mjg2Ljc1LCJ5IjoxMjI1fSx7IngiOjM1OS41LCJ5IjoxMjYxfSx7IngiOjM1OS41LCJ5IjoxMjk3fV0=" marker-end="url(#diagram-1_flowchart-v2-pointEnd)"></path><path d="M359.5,1345L359.5,1349.167C359.5,1353.333,359.5,1361.667,349.808,1369.75C340.115,1377.834,320.731,1385.668,311.039,1389.584L301.346,1393.501" id="L_Rollback_Receipt_0" class="edge-thickness-normal edge-pattern-solid edge-thickness-normal edge-pattern-solid flowchart-link" style=";" data-edge="true" data-et="edge" data-id="L_Rollback_Receipt_0" data-points="W3sieCI6MzU5LjUsInkiOjEzNDV9LHsieCI6MzU5LjUsInkiOjEzNzB9LHsieCI6Mjk3LjYzNzc1NTEwMjA0MDg0LCJ5IjoxMzk1fV0=" marker-end="url(#diagram-1_flowchart-v2-pointEnd)"></path></g><g class="edgeLabels"><g><rect class="background" style="stroke: none"></rect></g><g><rect class="background" style="stroke: none"></rect></g><g><rect class="background" style="stroke: none"></rect></g><g><rect class="background" style="stroke: none"></rect></g><g><rect class="background" style="stroke: none"></rect></g><g><rect class="background" style="stroke: none"></rect></g><g><rect class="background" style="stroke: none"></rect></g><g><rect class="background" style="stroke: none"></rect></g><g><rect class="background" style="stroke: none"></rect></g><g><rect class="background" style="stroke: none"></rect></g><g class="edgeLabel"><g class="label" data-id="L_Discover_Stage_0" transform="translate(0, 0)"><text y="-10.1"><tspan class="text-outer-tspan" x="0" y="-0.1em" dy="1.1em"></tspan></text></g></g><g class="edgeLabel"><g class="label" data-id="L_Stage_Verify_0" transform="translate(0, 0)"><text y="-10.1"><tspan class="text-outer-tspan" x="0" y="-0.1em" dy="1.1em"></tspan></text></g></g><g class="edgeLabel"><g class="label" data-id="L_Verify_Diff_0" transform="translate(0, 0)"><text y="-10.1"><tspan class="text-outer-tspan" x="0" y="-0.1em" dy="1.1em"></tspan></text></g></g><g class="edgeLabel"><g class="label" data-id="L_Diff_Scan_0" transform="translate(0, 0)"><text y="-10.1"><tspan class="text-outer-tspan" x="0" y="-0.1em" dy="1.1em"></tspan></text></g></g><g class="edgeLabel"><g class="label" data-id="L_Scan_Smoke_0" transform="translate(0, 0)"><text y="-10.1"><tspan class="text-outer-tspan" x="0" y="-0.1em" dy="1.1em"></tspan></text></g></g><g class="edgeLabel"><g class="label" data-id="L_Smoke_Canary_0" transform="translate(0, 0)"><text y="-10.1"><tspan class="text-outer-tspan" x="0" y="-0.1em" dy="1.1em"></tspan></text></g></g><g class="edgeLabel"><g class="label" data-id="L_Canary_Approval_0" transform="translate(0, 0)"><text y="-10.1"><tspan class="text-outer-tspan" x="0" y="-0.1em" dy="1.1em"></tspan></text></g></g><g class="edgeLabel" transform="translate(206.5, 1081)"><g class="label" data-id="L_Approval_Promote_0" transform="translate(-13.5, -11)"><g><rect class="background" style="" x="-2" y="-1" width="27" height="22"></rect><text y="-10.1" style=""><tspan class="text-outer-tspan" x="0" y="-0.1em" dy="1.1em"><tspan font-style="normal" class="text-inner-tspan" font-weight="normal">нет</tspan></tspan></text></g></g></g><g class="edgeLabel" transform="translate(341.5, 1021)"><g class="label" data-id="L_Approval_Human_0" transform="translate(-11, -11)"><g><rect class="background" style="" x="-2" y="-1" width="22" height="22"></rect><text y="-10.1" style=""><tspan class="text-outer-tspan" x="0" y="-0.1em" dy="1.1em"><tspan font-style="normal" class="text-inner-tspan" font-weight="normal">да</tspan></tspan></text></g></g></g><g class="edgeLabel" transform="translate(305.75, 1141)"><g class="label" data-id="L_Human_Promote_0" transform="translate(-30.5, -11)"><g><rect class="background" style="" x="-2" y="-1" width="61" height="22"></rect><text y="-10.1" style=""><tspan class="text-outer-tspan" x="0" y="-0.1em" dy="1.1em"><tspan font-style="normal" class="text-inner-tspan" font-weight="normal">approve</tspan></tspan></text></g></g></g><g class="edgeLabel" transform="translate(381.75, 1141)"><g class="label" data-id="L_Human_Quarantine_0" transform="translate(-21, -11)"><g><rect class="background" style="" x="-2" y="-1" width="42" height="22"></rect><text y="-10.1" style=""><tspan class="text-outer-tspan" x="0" y="-0.1em" dy="1.1em"><tspan font-style="normal" class="text-inner-tspan" font-weight="normal">reject</tspan></tspan></text></g></g></g><g class="edgeLabel" transform="translate(779.5, 582)"><g class="label" data-id="L_Verify_Quarantine_0" transform="translate(-13.5, -11)"><g><rect class="background" style="" x="-2" y="-1" width="27" height="22"></rect><text y="-10.1" style=""><tspan class="text-outer-tspan" x="0" y="-0.1em" dy="1.1em"><tspan font-style="normal" class="text-inner-tspan" font-weight="normal">red</tspan></tspan></text></g></g></g><g class="edgeLabel" transform="translate(673, 702)"><g class="label" data-id="L_Scan_Quarantine_0" transform="translate(-67.5, -11)"><g><rect class="background" style="" x="-2" y="-1" width="135" height="22"></rect><text y="-10.1" style=""><tspan class="text-outer-tspan" x="0" y="-0.1em" dy="1.1em"><tspan font-style="normal" class="text-inner-tspan" font-weight="normal">red</tspan><tspan font-style="normal" class="text-inner-tspan" font-weight="normal"> или</tspan><tspan font-style="normal" class="text-inner-tspan" font-weight="normal"> incomplete</tspan></tspan></text></g></g></g><g class="edgeLabel" transform="translate(558, 861.5)"><g class="label" data-id="L_Smoke_Quarantine_0" transform="translate(-13.5, -11)"><g><rect class="background" style="" x="-2" y="-1" width="27" height="22"></rect><text y="-10.1" style=""><tspan class="text-outer-tspan" x="0" y="-0.1em" dy="1.1em"><tspan font-style="normal" class="text-inner-tspan" font-weight="normal">red</tspan></tspan></text></g></g></g><g class="edgeLabel" transform="translate(481.5, 1021)"><g class="label" data-id="L_Canary_Quarantine_0" transform="translate(-13.5, -11)"><g><rect class="background" style="" x="-2" y="-1" width="27" height="22"></rect><text y="-10.1" style=""><tspan class="text-outer-tspan" x="0" y="-0.1em" dy="1.1em"><tspan font-style="normal" class="text-inner-tspan" font-weight="normal">red</tspan></tspan></text></g></g></g><g class="edgeLabel"><g class="label" data-id="L_Promote_Lock_0" transform="translate(0, 0)"><text y="-10.1"><tspan class="text-outer-tspan" x="0" y="-0.1em" dy="1.1em"></tspan></text></g></g><g class="edgeLabel"><g class="label" data-id="L_Lock_Receipt_0" transform="translate(0, 0)"><text y="-10.1"><tspan class="text-outer-tspan" x="0" y="-0.1em" dy="1.1em"></tspan></text></g></g><g class="edgeLabel" transform="translate(359.5, 1261)"><g class="label" data-id="L_Promote_Rollback_0" transform="translate(-66.5, -11)"><g><rect class="background" style="" x="-2" y="-1" width="133" height="22"></rect><text y="-10.1" style=""><tspan class="text-outer-tspan" x="0" y="-0.1em" dy="1.1em"><tspan font-style="normal" class="text-inner-tspan" font-weight="normal">runtime</tspan><tspan font-style="normal" class="text-inner-tspan" font-weight="normal"> regression</tspan></tspan></text></g></g></g><g class="edgeLabel"><g class="label" data-id="L_Rollback_Receipt_0" transform="translate(0, 0)"><text y="-10.1"><tspan class="text-outer-tspan" x="0" y="-0.1em" dy="1.1em"></tspan></text></g></g></g><g class="nodes"><g class="node default" id="flowchart-Discover-0" transform="translate(547, 32)"><rect class="basic label-container" style="" x="-88" y="-24" width="176" height="48"></rect><g class="label" style="" transform="translate(0, -9)"><rect></rect><g><rect class="background" style="stroke: none"></rect><text y="-10.1" style=""><tspan class="text-outer-tspan" x="0" y="-0.1em" dy="1.1em"><tspan font-style="normal" class="text-inner-tspan" font-weight="normal">Найти</tspan><tspan font-style="normal" class="text-inner-tspan" font-weight="normal"> candidate</tspan></tspan></text></g></g></g><g class="node default" id="flowchart-Stage-1" transform="translate(547, 130)"><rect class="basic label-container" style="" x="-99" y="-24" width="198" height="48"></rect><g class="label" style="" transform="translate(0, -9)"><rect></rect><g><rect class="background" style="stroke: none"></rect><text y="-10.1" style=""><tspan class="text-outer-tspan" x="0" y="-0.1em" dy="1.1em"><tspan font-style="normal" class="text-inner-tspan" font-weight="normal">Stage</tspan><tspan font-style="normal" class="text-inner-tspan" font-weight="normal"> exact</tspan><tspan font-style="normal" class="text-inner-tspan" font-weight="normal"> commit</tspan></tspan></text></g></g></g><g class="node default" id="flowchart-Verify-3" transform="translate(547, 228)"><rect class="basic label-container" style="" x="-114" y="-24" width="228" height="48"></rect><g class="label" style="" transform="translate(0, -9)"><rect></rect><g><rect class="background" style="stroke: none"></rect><text y="-10.1" style=""><tspan class="text-outer-tspan" x="0" y="-0.1em" dy="1.1em"><tspan font-style="normal" class="text-inner-tspan" font-weight="normal">Hash</tspan><tspan font-style="normal" class="text-inner-tspan" font-weight="normal"> license</tspan><tspan font-style="normal" class="text-inner-tspan" font-weight="normal"> path</tspan><tspan font-style="normal" class="text-inner-tspan" font-weight="normal"> safety</tspan></tspan></text></g></g></g><g class="node default" id="flowchart-Diff-5" transform="translate(484.25, 326)"><rect class="basic label-container" style="" x="-77.5" y="-24" width="155" height="48"></rect><g class="label" style="" transform="translate(0, -9)"><rect></rect><g><rect class="background" style="stroke: none"></rect><text y="-10.1" style=""><tspan class="text-outer-tspan" x="0" y="-0.1em" dy="1.1em"><tspan font-style="normal" class="text-inner-tspan" font-weight="normal">Capability</tspan><tspan font-style="normal" class="text-inner-tspan" font-weight="normal"> diff</tspan></tspan></text></g></g></g><g class="node default" id="flowchart-Scan-7" transform="translate(484.25, 424)"><rect class="basic label-container" style="" x="-90.5" y="-24" width="181" height="48"></rect><g class="label" style="" transform="translate(0, -9)"><rect></rect><g><rect class="background" style="stroke: none"></rect><text y="-10.1" style=""><tspan class="text-outer-tspan" x="0" y="-0.1em" dy="1.1em"><tspan font-style="normal" class="text-inner-tspan" font-weight="normal">SkillSpector</tspan><tspan font-style="normal" class="text-inner-tspan" font-weight="normal"> scan</tspan></tspan></text></g></g></g><g class="node default" id="flowchart-Smoke-9" transform="translate(413, 522)"><rect class="basic label-container" style="" x="-107.5" y="-24" width="215" height="48"></rect><g class="label" style="" transform="translate(0, -9)"><rect></rect><g><rect class="background" style="stroke: none"></rect><text y="-10.1" style=""><tspan class="text-outer-tspan" x="0" y="-0.1em" dy="1.1em"><tspan font-style="normal" class="text-inner-tspan" font-weight="normal">Windows</tspan><tspan font-style="normal" class="text-inner-tspan" font-weight="normal"> Linux</tspan><tspan font-style="normal" class="text-inner-tspan" font-weight="normal"> smoke</tspan></tspan></text></g></g></g><g class="node default" id="flowchart-Canary-11" transform="translate(353.25, 642)"><rect class="basic label-container" style="" x="-84.5" y="-24" width="169" height="48"></rect><g class="label" style="" transform="translate(0, -9)"><rect></rect><g><rect class="background" style="stroke: none"></rect><text y="-10.1" style=""><tspan class="text-outer-tspan" x="0" y="-0.1em" dy="1.1em"><tspan font-style="normal" class="text-inner-tspan" font-weight="normal">Contract</tspan><tspan font-style="normal" class="text-inner-tspan" font-weight="normal"> canary</tspan></tspan></text></g></g></g><g class="node default" id="flowchart-Approval-13" transform="translate(274, 861.5)"><polygon points="123.5,0 247,-123.5 123.5,-247 0,-123.5" class="label-container" transform="translate(-123, 123.5)"></polygon><g class="label" style="" transform="translate(0, -9)"><rect></rect><g><rect class="background" style="stroke: none"></rect><text y="-10.1" style=""><tspan class="text-outer-tspan" x="0" y="-0.1em" dy="1.1em"><tspan font-style="normal" class="text-inner-tspan" font-weight="normal">Authority</tspan><tspan font-style="normal" class="text-inner-tspan" font-weight="normal"> или</tspan><tspan font-style="normal" class="text-inner-tspan" font-weight="normal"> side-effect</tspan><tspan font-style="normal" class="text-inner-tspan" font-weight="normal"> diff?</tspan></tspan></text></g></g></g><g class="node default" id="flowchart-Promote-15" transform="translate(238.25, 1201)"><rect class="basic label-container" style="" x="-104" y="-24" width="208" height="48"></rect><g class="label" style="" transform="translate(0, -9)"><rect></rect><g><rect class="background" style="stroke: none"></rect><text y="-10.1" style=""><tspan class="text-outer-tspan" x="0" y="-0.1em" dy="1.1em"><tspan font-style="normal" class="text-inner-tspan" font-weight="normal">Atomic</tspan><tspan font-style="normal" class="text-inner-tspan" font-weight="normal"> pointer</tspan><tspan font-style="normal" class="text-inner-tspan" font-weight="normal"> switch</tspan></tspan></text></g></g></g><g class="node default" id="flowchart-Human-17" transform="translate(341.5, 1081)"><rect class="basic label-container" style="" x="-86.5" y="-24" width="173" height="48"></rect><g class="label" style="" transform="translate(0, -9)"><rect></rect><g><rect class="background" style="stroke: none"></rect><text y="-10.1" style=""><tspan class="text-outer-tspan" x="0" y="-0.1em" dy="1.1em"><tspan font-style="normal" class="text-inner-tspan" font-weight="normal">Human</tspan><tspan font-style="normal" class="text-inner-tspan" font-weight="normal"> approval</tspan></tspan></text></g></g></g><g class="node default" id="flowchart-Quarantine-21" transform="translate(588.75, 1201)"><rect class="basic label-container" style="" x="-104.5" y="-24" width="209" height="48"></rect><g class="label" style="" transform="translate(0, -9)"><rect></rect><g><rect class="background" style="stroke: none"></rect><text y="-10.1" style=""><tspan class="text-outer-tspan" x="0" y="-0.1em" dy="1.1em"><tspan font-style="normal" class="text-inner-tspan" font-weight="normal">Quarantine</tspan><tspan font-style="normal" class="text-inner-tspan" font-weight="normal"> candidate</tspan></tspan></text></g></g></g><g class="node default" id="flowchart-Lock-31" transform="translate(117, 1321)"><rect class="basic label-container" style="" x="-109" y="-24" width="218" height="48"></rect><g class="label" style="" transform="translate(0, -9)"><rect></rect><g><rect class="background" style="stroke: none"></rect><text y="-10.1" style=""><tspan class="text-outer-tspan" x="0" y="-0.1em" dy="1.1em"><tspan font-style="normal" class="text-inner-tspan" font-weight="normal">Write</tspan><tspan font-style="normal" class="text-inner-tspan" font-weight="normal"> components</tspan><tspan font-style="normal" class="text-inner-tspan" font-weight="normal"> lock</tspan></tspan></text></g></g></g><g class="node default" id="flowchart-Receipt-33" transform="translate(238.25, 1419)"><rect class="basic label-container" style="" x="-107" y="-24" width="214" height="48"></rect><g class="label" style="" transform="translate(0, -9)"><rect></rect><g><rect class="background" style="stroke: none"></rect><text y="-10.1" style=""><tspan class="text-outer-tspan" x="0" y="-0.1em" dy="1.1em"><tspan font-style="normal" class="text-inner-tspan" font-weight="normal">Journal</tspan><tspan font-style="normal" class="text-inner-tspan" font-weight="normal"> update</tspan><tspan font-style="normal" class="text-inner-tspan" font-weight="normal"> receipt</tspan></tspan></text></g></g></g><g class="node default" id="flowchart-Rollback-35" transform="translate(359.5, 1321)"><rect class="basic label-container" style="" x="-83.5" y="-24" width="167" height="48"></rect><g class="label" style="" transform="translate(0, -9)"><rect></rect><g><rect class="background" style="stroke: none"></rect><text y="-10.1" style=""><tspan class="text-outer-tspan" x="0" y="-0.1em" dy="1.1em"><tspan font-style="normal" class="text-inner-tspan" font-weight="normal">Atomic</tspan><tspan font-style="normal" class="text-inner-tspan" font-weight="normal"> rollback</tspan></tspan></text></g></g></g></g></g></g></svg>